<svg width="215" height="246" viewBox="0 0 215 246" fill="none" xmlns="http://www.w3.org/2000/svg">
<path d="M59.5 101.364V29.3642C92.0123 16.5909 107.041 19.1246 119.5 36.3642C128.42 52.2147 128.331 61.9767 122.5 80.3642C108.456 101.812 91.5669 106.389 59.5 101.364Z" stroke="black"/>
<path d="M60.5 16.0242C81.2921 4.74365 97.4591 -0.307272 111.967 0.0144237C126.659 0.340235 139.574 6.17269 153.793 16.4588L153.841 16.4939L153.88 16.5388C163.324 27.5728 168.637 39.3045 168.918 51.4568C169.199 63.6127 164.441 76.1159 153.883 88.6853L153.849 88.7263L153.807 88.7595C143.352 96.8786 135.055 102.524 126.484 106.517C118.576 110.202 110.453 112.467 100.21 113.987C111.953 116.806 120.603 119.833 127.964 124.072C135.37 128.336 141.446 133.81 148.054 141.479L149.383 143.043L149.39 143.051L149.985 143.802C156.1 151.603 160.959 161.006 171.459 185.165H171.458C180.286 205.444 186.113 217.237 200.341 231.997C206.923 237.361 209.968 239.411 213.628 240.381L214 240.479V240.864C214 241.59 214.017 242.212 214.008 242.697C213.998 243.189 213.961 243.626 213.826 244.014C213.536 244.851 212.849 245.299 211.707 245.819L211.615 245.861L211.516 245.864L211.5 245.364C211.515 245.844 211.515 245.863 211.515 245.864H211.451C211.415 245.864 211.363 245.862 211.294 245.859C211.157 245.853 210.951 245.838 210.665 245.806C210.092 245.743 209.191 245.609 207.859 245.332C205.197 244.778 200.803 243.647 193.843 241.339C179.892 236.712 172.684 232.84 160.709 224.271L160.684 224.253L160.66 224.231C141.83 206.818 132.931 193.195 118.561 165.603C108.837 149.337 100.692 138.268 91.665 130.582C82.7856 123.021 73.0246 118.711 60 115.979V192.306C61.0804 197.038 61.7662 199.138 62.3799 200.466C62.6861 201.128 62.978 201.606 63.3086 202.141C63.6408 202.68 64.0091 203.273 64.4463 204.139L64.8125 204.864H14.0674L14.584 204.088C15.9475 202.036 16.8367 200.388 17.4307 198.619C18.0239 196.852 18.3308 194.938 18.5 192.345V18.4275C17.9037 16.0301 17.2283 14.3325 16.1582 12.8914C15.0964 11.4615 13.6177 10.2484 11.3555 8.86403H0V2.86403H60.5V16.0242ZM111.944 1.01442C97.52 0.694625 81.3245 5.77485 60.2402 17.3025L59.5 17.7078V3.86403H1V7.86403H11.6396L11.7598 7.93728C14.1376 9.38147 15.771 10.6923 16.9609 12.2947C18.1521 13.8987 18.8707 15.7567 19.4854 18.2439L19.5 18.3035V192.381L19.499 192.396C19.3271 195.041 19.0104 197.054 18.3779 198.937C17.8253 200.583 17.0379 202.111 15.9219 203.864H63.167C62.9117 203.405 62.6821 203.03 62.458 202.667C62.1251 202.127 61.8059 201.606 61.4727 200.886C60.8097 199.451 60.1022 197.254 59.0127 192.475L59 192.421V114.752L59.6006 114.875C73.05 117.625 83.1407 122.01 92.3135 129.821C101.472 137.619 109.686 148.808 119.429 165.107L119.437 165.12L119.443 165.134C133.783 192.669 142.619 206.18 161.319 223.477C173.205 231.98 180.323 235.801 194.157 240.389C201.094 242.69 205.45 243.809 208.063 244.353C209.37 244.625 210.239 244.753 210.775 244.812C211.043 244.842 211.228 244.855 211.342 244.86C211.361 244.861 211.378 244.861 211.393 244.861C212.446 244.372 212.746 244.078 212.882 243.686C212.962 243.454 212.998 243.148 213.008 242.678C213.016 242.281 213.006 241.828 213.002 241.245C209.264 240.171 206.059 237.948 199.685 232.752L199.661 232.733L199.64 232.712C185.272 217.812 179.388 205.884 170.542 185.564L170.541 185.563C159.698 160.615 154.918 151.519 148.61 143.678V143.677C141.524 135.236 135.225 129.407 127.465 124.938C119.696 120.465 110.432 117.339 97.3887 114.351L97.4346 113.369C108.875 111.862 117.601 109.553 126.062 105.611C134.519 101.671 142.734 96.0889 153.149 88.0027C163.568 75.5857 168.192 63.3254 167.919 51.4802C167.645 39.6351 162.472 28.1325 153.157 17.2342C139.045 7.03323 126.339 1.33361 111.944 1.01442Z" fill="black"/>
fill-rule="evenodd"</svg>
