<svg width="215" height="246" viewBox="0 0 215 246" xmlns="http://www.w3.org/2000/svg">
<path fill-rule="evenodd" fill="black" d="M60 3.36439H0.5V8.36443H11.5C16.206 11.2226 17.7855 13.4493 19 18.3644V192.364C18.659 197.609 17.7524 200.223 15 204.364H64C62.2935 200.98 61.6772 201.913 59.5 192.364V115.364C86.2757 120.839 99.5289 132.789 119 165.364C133.359 192.936 142.227 206.504 161 223.864C172.939 232.408 180.102 236.255 194 240.864C207.898 245.474 211.5 245.364 211.5 245.364C213.777 244.328 213.5 243.864 213.5 240.864C209.717 239.863 206.592 237.737 200 232.364C185.695 217.53 179.839 205.669 171 185.364C160.159 160.421 155.355 151.266 149 143.364C134.778 126.423 123.627 119.848 97.5 113.864C120.453 110.841 132.609 104.588 153.5 88.3644C174.5 63.3644 172.283 38.8099 153.5 16.8645C125.148 -3.64505 102.233 -6.22644 60 16.8645V3.36439Z M59.32571 102.98318L59.32571 29.48318C68.52780 23.29769 74.80151 21.01966 88.82571 19.98313C104.85321 23.00109 112.55271 26.07828 120.32571 37.98318C129.45691 52.88128 129.20301 62.85618 124.32571 81.98318C112.46361 100.82858 99.76911 106.63678 59.32571 102.98318Z"/>
</svg>