<svg width="215" height="246" viewBox="0 0 215 246" fill="none" xmlns="http://www.w3.org/2000/svg">
<path fill-rule="evenodd" clip-rule="evenodd" d="M60.5 16.0242C81.2918 4.74364 97.459 -0.307272 111.967 0.0144237C126.659 0.340297 139.574 6.17273 153.793 16.4588L153.841 16.4939L153.88 16.5388C163.324 27.5727 168.638 39.3046 168.919 51.4568C169.199 63.6126 164.441 76.116 153.883 88.6853L153.849 88.7263L153.807 88.7595C143.352 96.8784 135.055 102.525 126.484 106.517C118.576 110.202 110.453 112.466 100.21 113.986C111.953 116.805 120.603 119.833 127.964 124.072C135.37 128.336 141.446 133.811 148.054 141.479L149.383 143.043L149.39 143.051L149.985 143.801C156.1 151.603 160.959 161.006 171.459 185.165C180.288 205.446 186.114 217.239 200.345 232C206.925 237.362 209.969 239.412 213.628 240.381L214 240.479V240.864C214 241.59 214.017 242.213 214.008 242.697C213.998 243.188 213.961 243.626 213.826 244.014C213.536 244.851 212.849 245.3 211.707 245.819L211.615 245.86L211.516 245.863L211.5 245.364L211.515 245.864H211.451C211.415 245.864 211.363 245.862 211.294 245.859C211.157 245.853 210.951 245.837 210.665 245.805C210.092 245.742 209.191 245.609 207.86 245.332C205.199 244.778 200.804 243.648 193.843 241.339C179.892 236.712 172.684 232.84 160.709 224.27L160.684 224.252L160.66 224.231C141.83 206.818 132.931 193.195 118.561 165.602C108.837 149.337 100.692 138.268 91.665 130.582C82.7856 123.021 73.0246 118.711 60 115.979V192.306C61.0804 197.038 61.7662 199.138 62.3799 200.466C62.6861 201.128 62.9781 201.606 63.3086 202.141C63.6407 202.68 64.0093 203.272 64.4463 204.138L64.8125 204.864H14.0674L14.584 204.087C15.9472 202.036 16.8367 200.388 17.4307 198.619C18.0239 196.852 18.3308 194.938 18.5 192.345V18.4275C17.9037 16.0303 17.2281 14.3324 16.1582 12.8914C15.0964 11.4616 13.6176 10.2484 11.3555 8.86403H0V2.86403H60.5V16.0242ZM93.585 33.7205L62.585 79.7205L62.0605 80.4998H130.009L129.397 79.697L94.3975 33.697L93.9756 33.1414L93.585 33.7205Z" fill="black"/>
</svg>